# xmcd
#
# Track frame offsets:
#	150
#	14349
#	29244
#	44502
#	62587
#	80569
#	104291
#	116558
#	128412
#	145370
#	158803
#	171499
#	182792
#	195553
#	211169
#	226235
#	240803
#	255330
#	271938
#	285091
#	300253
#	314960
#
# Disc length: 4420 seconds
#
# Revision: 0
# Processed by: cddbd v1.5.2PL0 Copyright (c) Steve Scherf et al.
# Submitted via: EasyCDDAExtractor 16.0.6.1
#
DISCID=2b114216
DTITLE=Various Artist - Nrj Summer Hits Only 2018 [CD3)
DYEAR=2018
DGENRE=Polka
TTITLE0=Tal - Mondial
TTITLE1=Maitre Gims - La Meme
TTITLE2=G-Eazy Feat Charlie Puth - Sober
TTITLE3=Flo Rida - Gotta Get It Dancer
TTITLE4=Pink - Whatever You Want
TTITLE5=Bigflo Et Oli - Papa Feat Notre Pere Fabian
TTITLE6=Bebe Rexha Feat Florida Georgia Line - Meant To Be
TTITLE7=Alex Hepburn - I Believe
TTITLE8=Maruv Boosin - Drunk Groove
TTITLE9=Bob Sinclar - I Believe (Radio Edit)
TTITLE10=Ben'do - Pareil
TTITLE11=Lost Frequencies Feat James Blunt - Melody
TTITLE12=Sasha - Je Danse
TTITLE13=Jax Jones Feat Ina Wroldsen - Breathe
TTITLE14=Mono Mind - Save Me A Place (Hugel Remix)
TTITLE15=Maxime Manot - Parlez A Mes Fesses
TTITLE16=Inna Feat Matt Houston - La Roulette
TTITLE17=Vegedream - La Rue (Radio Edit)
TTITLE18=Tujamo and Sidney Samson - Riverside
TTITLE19=Vianney - Le Fils A Papa (Remix)
TTITLE20=Selena Gomez and Marshmello - Wolves
TTITLE21=Post Malone Feat Ty Dolla $Ign - Psycho
EXTD=
EXTT0=
EXTT1=
EXTT2=
EXTT3=
EXTT4=
EXTT5=
EXTT6=
EXTT7=
EXTT8=
EXTT9=
EXTT10=
EXTT11=
EXTT12=
EXTT13=
EXTT14=
EXTT15=
EXTT16=
EXTT17=
EXTT18=
EXTT19=
EXTT20=
EXTT21=
PLAYORDER=
